<?xml version="1.0" encoding="utf-8"?>
<!-- Generator: Adobe Illustrator 17.0.0, SVG Export Plug-In . SVG Version: 6.00 Build 0)  -->
<!DOCTYPE svg PUBLIC "-//W3C//DTD SVG 1.1//EN" "http://www.w3.org/Graphics/SVG/1.1/DTD/svg11.dtd">
<svg version="1.1" xmlns="http://www.w3.org/2000/svg" xmlns:xlink="http://www.w3.org/1999/xlink" x="0px" y="0px"
	 width="195.815px" height="202.775px" viewBox="0 0 195.815 202.775" enable-background="new 0 0 195.815 202.775"
	 xml:space="preserve">
<g id="Layer_1">
	<g>
		<path fill="#EF7C1E" d="M184.683,69.188H126.38l-18.017-55.45c-1.48-4.551-5.69-7.609-10.476-7.609
			c-4.787,0-8.997,3.058-10.476,7.611L69.394,69.188L9.786,63.15c-4.788,0-9.712,4.855-9.712,9.639
			c0,11.982-0.706,20.597,2.256,23.56l47.845,35.387l-16.818,42.689c-2.385,7.681,0.542,23.431,4.414,26.247
			c3.787,2.748,9.152,2.754,12.949-0.001l47.166-34.27l47.169,34.271c1.894,1.375,4.133,2.102,6.473,2.102
			c2.342,0,4.581-0.727,6.476-2.103c3.873-2.815,8.384-18.564,4.314-26.708L145.6,131.737l48.214-35.813
			c2.689-2.689,1.89-10.754,1.89-21.849C195.703,68.001,190.765,69.188,184.683,69.188z"/>
		<path fill="#F5A045" d="M184.683,63.06H126.38l-18.017-55.45C106.883,3.058,102.673,0,97.887,0C93.1,0,88.89,3.058,87.412,7.611
			L69.394,63.06H11.092c-4.788,0-8.998,3.06-10.474,7.611c-1.481,4.554,0.127,9.502,4,12.316l47.169,34.27l-18.018,55.45
			c-1.477,4.551,0.131,9.5,4.004,12.316c3.787,2.748,9.152,2.754,12.949-0.001l47.166-34.27l47.169,34.271
			c1.894,1.375,4.133,2.102,6.473,2.102c2.342,0,4.581-0.727,6.476-2.103c3.873-2.815,5.479-7.765,4.001-12.316l-18.017-55.449
			l46.964-34.122c2.975-2.059,4.751-5.445,4.751-9.059C195.703,68.001,190.765,63.06,184.683,63.06z"/>
		<path fill="#F5A045" d="M184.683,63.06H126.38l-18.017-55.45C106.883,3.058,102.673,0,97.887,0C93.1,0,88.89,3.058,87.412,7.611
			L69.394,63.06H11.092c-4.788,0-8.998,3.06-10.474,7.611c-1.481,4.554,0.127,9.502,4,12.316l47.169,34.27l-18.018,55.45
			c-1.477,4.551,0.131,9.5,4.004,12.316c3.787,2.748,9.152,2.754,12.949-0.001l47.166-34.27l47.169,34.271
			c1.894,1.375,4.133,2.102,6.473,2.102c2.342,0,4.581-0.727,6.476-2.103c3.873-2.815,5.479-7.765,4.001-12.316l-18.017-55.449
			l46.964-34.122c2.975-2.059,4.751-5.445,4.751-9.059C195.703,68.001,190.765,63.06,184.683,63.06z"/>
		<path fill="#F8B578" d="M171.173,71.923c0,0-49.527,3.284-52.811,0s-16.32-50.227-16.32-50.227
			c-1.34-4.122,7.472,53.024,11.137,56.689C116.844,82.051,176.682,71.923,171.173,71.923z"/>
		<path opacity="0.1" fill="#F6A873" d="M69.394,63.06H11.092c-4.788,0-8.998,3.06-10.474,7.611c-1.481,4.554,0.127,9.502,4,12.316
			l47.169,34.27l-18.018,55.45c-1.477,4.551,0.131,9.5,4.004,12.316c3.787,2.748,9.152,2.754,12.949-0.001l47.166-34.27
			l47.169,34.271c1.894,1.375,4.133,2.102,6.473,2.102c2.342,0,4.581-0.727,6.476-2.103c3.873-2.815,5.479-7.765,4.001-12.316
			L69.394,63.06z"/>
	</g>
</g>
<g id="Layer_2">
</g>
</svg>
