<svg style="enable-background:new 0 0 128 128;" version="1.1" xml:space="preserve" xmlns="http://www.w3.org/2000/svg" xmlns:xlink="http://www.w3.org/1999/xlink" width="128" height="128"><rect id="backgroundrect" width="100%" height="100%" x="0" y="0" fill="none" stroke="none"/><g class="currentLayer" style=""><title>Layer 1</title><g id="svg_1" class="" fill="#666c71" fill-opacity="1" opacity="1"><path d="M30,49c0,18.7,15.3,34,34,34s34-15.3,34-34S82.7,15,64,15S30,30.3,30,49z M90,49c0,14.3-11.7,26-26,26S38,63.3,38,49   s11.7-26,26-26S90,34.7,90,49z" id="svg_2" fill="#666c71" fill-opacity="1" opacity="1"/><path d="M24.4,119.4C35,108.8,49,103,64,103s29,5.8,39.6,16.4l5.7-5.7C97.2,101.7,81.1,95,64,95s-33.2,6.7-45.3,18.7L24.4,119.4z" id="svg_3" fill="#666c71" fill-opacity="1" opacity="1"/></g></g></svg>